<?xml version="1.0" encoding="UTF-8"?>
<svg id="Layer_1" data-name="Layer 1" xmlns="http://www.w3.org/2000/svg" viewBox="0 0 126.52 112.13">
  <defs>
    <style>
      .cls-1 {
        fill: #9ff58b;
      }
    </style>
  </defs>
  <path class="cls-1" d="M39.64,51.63l-.1-.17c-1.61-2.79-4.59-4.52-7.82-4.52H9.03c-4.99,0-9.03,4.04-9.03,9.03v.17c0,4.99,4.04,9.03,9.03,9.03h22.79c3.23,0,6.21-1.72,7.82-4.52,1.61-2.79,1.61-6.23,0-9.03"/>
  <path class="cls-1" d="M117.49,46.94h-22.77c-3.22,0-6.21,1.72-7.82,4.51l-7.89,13.66-.03.05-7.88,13.66c-1.61,2.79-1.61,6.23,0,9.03l11.39,19.73c2.49,4.32,8.02,5.8,12.33,3.3l.15-.08c4.32-2.49,5.8-8.01,3.3-12.33l-15.14-26.23c-1.82-3.14.45-7.07,4.08-7.07h30.28c4.99,0,9.03-4.04,9.03-9.03v-.17c0-4.99-4.04-9.03-9.03-9.03"/>
  <path class="cls-1" d="M73.86,56.07c2.81-4.86,16.83-29.11,24.56-42.48,2.48-4.29,1-9.76-3.28-12.24l-.26-.15c-4.3-2.48-9.79-1.01-12.27,3.29l-16.76,28.99c-1.12,1.94-3.93,1.94-5.05,0L44.04,4.49c-2.48-4.29-7.97-5.76-12.27-3.29l-.28.16c-4.29,2.47-5.76,7.95-3.29,12.23,6.3,10.91,16.85,29.07,22,38,1.6,2.77,1.6,6.16,0,8.93-5.71,9.88-15.5,26.81-21.99,38.04-2.47,4.28-1,9.73,3.28,12.2l.31.18c4.28,2.47,9.75,1.01,12.22-3.27,9.03-15.62,23.8-41.16,29.84-51.6"/>
</svg>