<?xml version="1.0" encoding="UTF-8"?>
<svg id="Layer_1" data-name="Layer 1" xmlns="http://www.w3.org/2000/svg" viewBox="0 0 461.9 57.19">
  <defs>
    <style>
      .cls-1 {
        fill: #d1b0f5;
      }
    </style>
  </defs>
  <polygon class="cls-1" points="24.34 29.93 23.93 29.93 10.67 1.08 0 1.08 19.59 38.51 19.59 56.1 28.68 56.1 28.68 38.43 48.27 1.08 37.6 1.08 24.34 29.93"/>
  <path class="cls-1" d="M98.32,7.46c-2.2-2.47-4.82-4.34-7.88-5.59-3.06-1.25-6.47-1.88-10.25-1.88-4.84,0-9.14,1.07-12.92,3.21-3.78,2.14-6.75,5.33-8.92,9.58-2.17,4.25-3.25,9.6-3.25,16.05,0,4.39.54,8.33,1.63,11.84,1.08,3.5,2.69,6.47,4.83,8.92,2.14,2.45,4.75,4.32,7.83,5.63,3.08,1.31,6.63,1.96,10.63,1.96s7.55-.64,10.63-1.92c3.08-1.28,5.71-3.14,7.88-5.59,2.16-2.45,3.8-5.43,4.92-8.96,1.11-3.53,1.67-7.51,1.67-11.96s-.58-8.63-1.75-12.21c-1.17-3.59-2.85-6.62-5.04-9.09ZM94.03,40.22c-1.22,3.03-3,5.35-5.34,6.96-2.33,1.61-5.17,2.42-8.5,2.42-2.5,0-4.74-.46-6.71-1.38-1.97-.92-3.63-2.25-4.96-4-1.33-1.75-2.36-3.92-3.08-6.5-.73-2.59-1.08-5.54-1.08-8.88,0-4.56.63-8.39,1.88-11.5s3.05-5.49,5.42-7.13c2.36-1.64,5.15-2.46,8.38-2.46s6.18.85,8.54,2.54c2.36,1.7,4.17,4.13,5.42,7.29,1.25,3.17,1.88,7,1.88,11.5s-.61,8.1-1.83,11.13Z"/>
  <polygon class="cls-1" points="161.3 44.01 160.55 44.01 132.96 1.08 120.96 1.08 120.96 56.1 129.79 56.1 129.21 11.84 129.96 11.84 158.63 56.1 169.56 56.1 169.56 1.08 160.72 1.08 161.3 44.01"/>
  <polygon class="cls-1" points="198.9 1.08 182.39 1.08 182.39 8.92 198.9 8.92 198.9 56.1 208.07 56.1 208.07 8.92 224.66 8.92 224.66 1.08 208.07 1.08 198.9 1.08"/>
  <path class="cls-1" d="M275.92,37.76c-1.06-1.61-2.36-2.86-3.92-3.75s-3.47-1.47-5.75-1.75v-1.08c2.33-.28,4.38-.79,6.13-1.54,1.75-.75,3.22-1.74,4.42-2.96s2.09-2.63,2.67-4.21c.58-1.59.88-3.35.88-5.29,0-2.06-.32-3.93-.96-5.63-.64-1.69-1.6-3.19-2.88-4.5-1.28-1.3-2.83-2.4-4.67-3.29-1.83-.89-3.92-1.56-6.25-2-2.33-.44-4.95-.67-7.83-.67h-20.17v55.02h9.09v-20.26h10.17c2.28,0,4.25.3,5.92.92,1.67.61,3.06,1.6,4.17,2.96,1.11,1.36,1.94,3.15,2.5,5.38l2.67,11.01h9.92l-3.42-12c-.72-2.61-1.61-4.72-2.67-6.34ZM257.08,28.68h-10.42V8.42h10.59c4.67,0,8.13.82,10.38,2.46,2.25,1.64,3.38,4.18,3.38,7.63s-1.18,6-3.54,7.67c-2.36,1.67-5.82,2.5-10.38,2.5Z"/>
  <path class="cls-1" d="M311.6,1.08l-19.17,55.02h9.84l3.84-11.84h24.26l3.84,11.84h9.84L324.86,1.08h-13.26ZM308.26,37.6l9.43-29.09h1.08l9.43,29.09h-19.94Z"/>
  <path class="cls-1" d="M392.25,42.39c-.92,2.14-2.35,3.85-4.29,5.13-1.95,1.28-4.56,1.92-7.84,1.92s-6.18-.71-8.71-2.13c-2.53-1.42-4.5-3.64-5.92-6.67-1.42-3.03-2.12-6.96-2.12-11.8,0-3.78.43-7,1.29-9.67.86-2.67,2.03-4.85,3.5-6.54,1.47-1.69,3.15-2.93,5.04-3.71,1.89-.78,3.84-1.17,5.84-1.17,2.16,0,4.19.45,6.09,1.33,1.89.89,3.4,2.21,4.54,3.96,1.14,1.75,1.68,3.96,1.62,6.63l8.59-2.17c-.06-2.72-.6-5.17-1.63-7.34-1.03-2.17-2.46-4-4.29-5.5-1.83-1.5-4-2.65-6.5-3.46-2.5-.8-5.22-1.21-8.17-1.21-3.84,0-7.31.67-10.42,2-3.11,1.33-5.78,3.26-8,5.79-2.22,2.53-3.93,5.6-5.13,9.21-1.2,3.62-1.79,7.7-1.79,12.25s.58,8.49,1.75,11.96c1.17,3.47,2.86,6.39,5.09,8.76,2.22,2.36,4.94,4.15,8.17,5.38,3.22,1.22,6.86,1.83,10.92,1.83s7.22-.53,10-1.58,5.04-2.53,6.79-4.42c1.75-1.89,3.04-4.1,3.88-6.63.83-2.53,1.28-5.21,1.33-8.05l-8.09-1.42c-.11,2.72-.63,5.15-1.54,7.29Z"/>
  <path class="cls-1" d="M458.07,45.52c-1.11-2.78-2.35-5.2-3.71-7.25-1.36-2.05-2.91-3.75-4.63-5.08-1.72-1.33-3.65-2.35-5.79-3.04-2.14-.69-4.54-1.04-7.21-1.04v-1.08c2.44-1.06,4.9-2.47,7.38-4.25,2.47-1.78,4.83-3.85,7.09-6.21,2.25-2.36,4.24-4.93,5.96-7.71,1.72-2.78,3.08-5.7,4.08-8.75h-10.25c-.83,2.67-2.08,5.31-3.75,7.92-1.67,2.61-3.65,5.06-5.96,7.34-2.31,2.28-4.83,4.32-7.59,6.13-2.75,1.81-5.63,3.26-8.63,4.38V1.08h-9.09v55.02h9.09v-22.26h4.92c3.78,0,6.86.5,9.25,1.5,2.39,1,4.36,2.53,5.92,4.59,1.56,2.06,2.89,4.7,4,7.92l2.42,8.25h10.34l-3.83-10.59Z"/>
</svg>